<?xml version="1.0" encoding="UTF-8" standalone="no"?>
<!-- Created with Inkscape (http://www.inkscape.org/) -->

<svg
   version="1.1"
   id="svg2"
   xml:space="preserve"
   width="3333.3333"
   height="3333.3333"
   viewBox="0 0 3333.3333 3333.3333"
   sodipodi:docname="shaka.eps"
   xmlns:inkscape="http://www.inkscape.org/namespaces/inkscape"
   xmlns:sodipodi="http://sodipodi.sourceforge.net/DTD/sodipodi-0.dtd"
   xmlns="http://www.w3.org/2000/svg"
   xmlns:svg="http://www.w3.org/2000/svg"><defs
     id="defs6"><clipPath
       clipPathUnits="userSpaceOnUse"
       id="clipPath20"><path
         d="M 18264.9,12670.5 13408.1,17554 c 0,0 -960.7,160.1 -1067.5,133.4 -106.7,-26.7 -1521.1,160.1 -1067.4,-1681.2 0,0 -2161.56,260.7 -1974.76,-1791 0,0 -1921.38,-290.5 -1894.69,-1945 26.68,-1654.5 507.03,-3095.6 960.68,-3255.7 453.67,-160.1 1994.07,-1575.9 2935.47,-1441 941.4,134.9 2223.3,453.6 2819.5,720.5 596.3,266.9 1370.2,320.2 1637,640.5 266.9,320.2 1681.2,1104 1734.6,1566 53.4,462.1 773.9,2170 773.9,2170 z"
         id="path18" /></clipPath><linearGradient
       x1="0"
       y1="0"
       x2="1"
       y2="0"
       gradientUnits="userSpaceOnUse"
       gradientTransform="matrix(3442.47,-3015.5,-3015.5,-3442.47,9723.72,14285.5)"
       spreadMethod="pad"
       id="linearGradient26"><stop
         style="stop-opacity:1;stop-color:#da8218"
         offset="0"
         id="stop22" /><stop
         style="stop-opacity:1;stop-color:#f9ab2f"
         offset="1"
         id="stop24" /></linearGradient><clipPath
       clipPathUnits="userSpaceOnUse"
       id="clipPath36"><path
         d="m 20132.9,9441.5 213.5,4243 1761.2,4963.6 c 0,0 -133.4,1441.1 -987.3,1467.7 -854,26.7 -1361,-453.6 -1654.5,-1120.8 -293.6,-667.1 -1921.4,-4643.3 -1921.4,-4643.3 0,0 -213.5,-1469.1 -1120.8,-1935.4 -907.4,-466.3 -1334.3,-653.1 -1334.3,-653.1 0,0 -420.3,-1968.1 -1601.2,-1734.6 0,0 -434,-1894.7 -1284.4,-1841.3 -850.4,53.3 -2691.78,1654.5 -2691.78,1654.5 l -4723.39,4589.9 c 0,0 -1254.23,-219.6 -1334.29,-216.5 -80.06,3.1 -426.97,-763.8 -426.97,-763.8 l 133.42,-646.8 c 0,0 160.12,-698.2 293.55,-656.3 133.43,41.8 6618.06,-6736.4 6618.06,-6736.4 0,0 3949.5,-2401.7 6885,-560.4 2935.4,1841.4 3175.6,4590 3175.6,4590 z"
         id="path34" /></clipPath><linearGradient
       x1="0"
       y1="0"
       x2="1"
       y2="0"
       gradientUnits="userSpaceOnUse"
       gradientTransform="matrix(5604.03,-6297.86,-6297.86,-5604.03,14509.8,13782.3)"
       spreadMethod="pad"
       id="linearGradient42"><stop
         style="stop-opacity:1;stop-color:#da8218"
         offset="0"
         id="stop38" /><stop
         style="stop-opacity:1;stop-color:#f9ab2f"
         offset="1"
         id="stop40" /></linearGradient></defs><sodipodi:namedview
     id="namedview4"
     pagecolor="#ffffff"
     bordercolor="#666666"
     borderopacity="1.0"
     inkscape:pageshadow="2"
     inkscape:pageopacity="0.0"
     inkscape:pagecheckerboard="0" /><g
     id="g8"
     inkscape:groupmode="layer"
     inkscape:label="ink_ext_XXXXXX"
     transform="matrix(1.3333333,0,0,-1.3333333,0,3333.3333)"><g
       id="g10"
       transform="scale(0.1)"><g
         id="g14"><g
           id="g16"
           clip-path="url(#clipPath20)"><path
             d="M 18264.9,12670.5 13408.1,17554 c 0,0 -960.7,160.1 -1067.5,133.4 -106.7,-26.7 -1521.1,160.1 -1067.4,-1681.2 0,0 -2161.56,260.7 -1974.76,-1791 0,0 -1921.38,-290.5 -1894.69,-1945 26.68,-1654.5 507.03,-3095.6 960.68,-3255.7 453.67,-160.1 1994.07,-1575.9 2935.47,-1441 941.4,134.9 2223.3,453.6 2819.5,720.5 596.3,266.9 1370.2,320.2 1637,640.5 266.9,320.2 1681.2,1104 1734.6,1566 53.4,462.1 773.9,2170 773.9,2170"
             style="fill:url(#linearGradient26);fill-opacity:1;fill-rule:nonzero;stroke:none"
             id="path28" /></g></g><g
         id="g30"><g
           id="g32"
           clip-path="url(#clipPath36)"><path
             d="m 20132.9,9441.5 213.5,4243 1761.2,4963.6 c 0,0 -133.4,1441.1 -987.3,1467.7 -854,26.7 -1361,-453.6 -1654.5,-1120.8 -293.6,-667.1 -1921.4,-4643.3 -1921.4,-4643.3 0,0 -213.5,-1469.1 -1120.8,-1935.4 -907.4,-466.3 -1334.3,-653.1 -1334.3,-653.1 0,0 -420.3,-1968.1 -1601.2,-1734.6 0,0 -434,-1894.7 -1284.4,-1841.3 -850.4,53.3 -2691.78,1654.5 -2691.78,1654.5 l -4723.39,4589.9 c 0,0 -1254.23,-219.6 -1334.29,-216.5 -80.06,3.1 -426.97,-763.8 -426.97,-763.8 l 133.42,-646.8 c 0,0 160.12,-698.2 293.55,-656.3 133.43,41.8 6618.06,-6736.4 6618.06,-6736.4 0,0 3949.5,-2401.7 6885,-560.4 2935.4,1841.4 3175.6,4590 3175.6,4590"
             style="fill:url(#linearGradient42);fill-opacity:1;fill-rule:nonzero;stroke:none"
             id="path44" /></g></g><path
         d="m 21607.6,18480.8 -1576,-4085 -5.8,-20 c -11,-38.8 -270.6,-963.1 -260.9,-2035.5 9,-1001.7 0,-1930.3 0,-1939.5 v -4.5 c 0,-3195.4 -2599.7,-5795.2 -5795.2,-5795.2 -1650.1,0 -3227.1,707 -4326.34,1939.2 l -226.61,-202 209.72,208.4 -2960.91,2979.1 7.91,7.9 -2582.1,2582.1 -1.58,1.8 -497.27,497.3 c -348.22,348.2 -348.22,914.9 0,1262.8 168.57,168.9 392.8,261.7 631.28,261.7 238.74,0 462.97,-92.8 631.54,-261.7 l 3081.22,-3080.9 2.11,2.1 2605.53,-2605.6 c 343,-342.9 799.1,-531.8 1284.5,-531.8 485.1,0 941.2,188.9 1284.2,531.8 354,354 531,819.1 531,1284.5 0,34.3 -1,68.3 -2.9,102.6 34.3,-1.9 68.9,-3.2 103.4,-3.2 485.2,0 941.3,188.9 1284.5,532.1 354,354 530.8,819.1 530.8,1283.9 0,34.3 -1.1,68.6 -2.9,102.9 34.3,-1.8 68.8,-3.1 103.4,-3.1 485.4,0 941.5,189.1 1284.4,532 354,354.1 530.8,818.9 530.8,1284 0,193.3 -30.6,387 -91.8,572.4 335,153.8 632.6,477 885.3,962.6 160.4,308.9 255.4,594.1 279.4,669.6 l 1392.9,3610.1 c 177.2,459.6 695.3,689.1 1154.6,511.8 222.4,-85.7 398.4,-253.3 494.9,-471.4 96.6,-217.9 102.6,-460.6 16.9,-683.3 z M 8115.94,13190.3 c 174.11,174.1 402.83,261.1 631.55,261.1 228.71,0 457.43,-87 631.54,-261.1 l 3080.97,-3081 c 348.2,-348.2 348.2,-914.9 0,-1263.1 -168.6,-168.5 -392.8,-261.4 -631.3,-261.4 -238.7,0 -463,92.9 -631.5,261.4 l -3081.26,3081.2 c -168.57,168.6 -261.43,392.8 -261.43,631.6 0,238.5 92.86,462.7 261.43,631.3 z m 1915.76,1916 c 174.3,174.1 402.8,261.1 631.5,261.1 228.7,0 457.4,-87 631.6,-261.1 L 14376,12025 c 348.2,-348.2 348.2,-914.8 0,-1263 -84.4,-84.2 -182.6,-149.6 -289.7,-193.9 -13.4,-5.6 -26.9,-10.8 -40.6,-15.6 -13.5,-5 -27.4,-9.5 -41.2,-13.7 -13.9,-4.2 -27.9,-7.9 -41.9,-11.6 -14.3,-3.5 -28.5,-6.6 -42.7,-9.5 -57.3,-11.4 -115.8,-17.2 -175.5,-17.2 -238.4,0 -462.7,92.9 -631.5,261.5 l -3081.2,3081.2 c -168.59,168.8 -261.45,393 -261.45,631.5 0,238.5 92.86,462.7 261.45,631.6 z m 1916,1915.7 c 174.1,174.1 402.8,261.2 631.5,261.2 228.7,0 457.5,-87.1 631.3,-261.2 l 3081.2,-3081.2 c 348.2,-348 348.2,-914.6 0,-1262.8 -168.6,-168.9 -392.8,-261.7 -631.5,-261.7 -238.5,0 -462.7,92.8 -631.3,261.7 l -3081.2,3081.2 c -168.6,168.5 -261.7,392.8 -261.7,631.2 0,238.8 93.1,463 261.7,631.6 z m 10487.2,2516.4 c -196.6,443.5 -554.3,783.8 -1007,958.4 -934.3,360.6 -1987.7,-106.3 -2348.3,-1040.7 l -1398.2,-3624.4 -11.3,-32.9 c -118.5,-393.4 -424.2,-989.8 -690.4,-1086.4 -26.6,-9.5 -79.1,-28.2 -186.2,32.5 l -2930.1,2930 c -708,708.3 -1860.3,708.3 -2568.6,0 -343,-342.9 -532.1,-799 -532.1,-1284.5 0,-34.5 1.3,-69.1 3.1,-103.4 -498.5,28 -1006.63,-147.7 -1386.77,-527.8 -343.21,-343.2 -532.09,-799.4 -532.09,-1284.5 0,-34.8 1.32,-69.1 3.17,-103.4 -498.86,28 -1006.94,-148 -1387.08,-528.1 -225.81,-225.8 -384.36,-500.7 -466.66,-800.7 l -1488.12,1488.1 c -342.94,343.2 -799.32,532.1 -1284.45,532.1 -485.13,0 -941.25,-188.9 -1284.19,-532.1 -708.31,-708 -708.31,-1860.3 0,-2568.6 l 496.21,-496.5 5535.64,-5569.9 5.54,5.5 c 1273.4,-1413.2 3091,-2223.3 4992.7,-2223.3 1794.7,0 3481.7,698.8 4750.6,1968 1268.6,1268.3 1967.4,2954.6 1968,4748.4 0.5,55.2 8.7,969.8 -0.3,1954.5 -7.7,858.4 187.5,1630.9 221,1756.4 l 1559.9,4043.3 c 174.6,452.7 162.5,946.3 -34,1390"
         style="fill:#371416;fill-opacity:1;fill-rule:nonzero;stroke:none"
         id="path46" /></g></g></svg>
